<svg xmlns="http://www.w3.org/2000/svg" width="325" height="184" viewBox="0 0 380 184">
  <g fill="#ffffff" fill-opacity="0.06" fill-rule="evenodd" >
    <path d="M134.7601 172.9765C134.7601 167.3435 140.2891 162.7365 147.0481 162.7365L270.3371 162.7365C277.0961 162.7365 282.6251 167.3435 282.6251 172.9765 282.6251 178.6085 277.0961 183.2155 270.3371 183.2155L147.0481 183.2155C140.2891 183.2155 134.7601 178.6085 134.7601 172.9765M341.1986 134.0644C341.1986 128.4314 346.7276 123.8244 353.4866 123.8244L367.4126 123.8244C374.1716 123.8244 379.7006 128.4314 379.7006 134.0644 379.7006 139.6964 374.1716 144.3034 367.4126 144.3034L353.4866 144.3034C346.7276 144.3034 341.1986 139.6964 341.1986 134.0644M99.1244 172.9765C99.1244 167.3435 103.7324 162.7365 109.3644 162.7365 114.9964 162.7365 119.6044 167.3435 119.6044 172.9765 119.6044 178.6085 114.9964 183.2155 109.3644 183.2155 103.7324 183.2155 99.1244 178.6085 99.1244 172.9765M34.8177 93.1044C34.8177 87.4714 40.3467 82.8644 47.1057 82.8644L61.0317 82.8644C67.7907 82.8644 73.3197 87.4714 73.3197 93.1044 73.3197 98.7364 67.7907 103.3434 61.0317 103.3434L47.1057 103.3434C40.3467 103.3434 34.8177 98.7364 34.8177 93.1044"/>
    
  </g>
</svg>